# xmcd
#
# Track frame offsets: 
#        150
#        9004
#        24507
#        38727
#        47819
#        69642
#        78416
#        102924
#        111942
#        132710
#
# Disc length: 1825 seconds
#
# Revision: 0
# Processed by: cddbd v1.5.2PL0 Copyright (c) Steve Scherf et al.
# Submitted via: ExactAudioCopy v1.0b3
#
DISCID=7d071f0a
DTITLE=Chuck D - Stay Positive Or Stay Home Volume 2
DYEAR=2017
DGENRE=Instrumental
TTITLE0=Tomorrow is the ? (Instrumental)
TTITLE1=Bernie Got Berned (Instrumental)
TTITLE2=House of Scam (Instrumental)
TTITLE3=Microphone Moses (Instrumental)
TTITLE4=Free Big Willie (Part 2) (Instrumental)
TTITLE5=Mr. Journiggalist (Instrumental)
TTITLE6=Generation Wrekkked (Jack X) (Instrumental)
TTITLE7=Hydraulic Funkaholics (Instrumental)
TTITLE8=Free Big Wille (Part 3) (Instrumental)
TTITLE9=Furor Furman (Instrumental)
EXTD=
EXTT0=
EXTT1=
EXTT2=
EXTT3=
EXTT4=
EXTT5=
EXTT6=
EXTT7=
EXTT8=
EXTT9=
PLAYORDER=
